<svg width="25" height="25" viewBox="0 0 25 25" fill="none" xmlns="http://www.w3.org/2000/svg">
<circle cx="12.5" cy="12.5" r="12.5" fill="#3676FF"/>
<path d="M12.2042 6L11.6565 6.22673L15.3418 15.2272L15.8895 15.0005L12.2042 6ZM18.549 7.15091L14.0498 9.01391L14.501 10.1155L19 8.25247L18.549 7.15091ZM18.1174 9.21758L14.7167 10.6424L14.9334 11.1368L17.7811 9.94116L18.1174 9.21758ZM12.4433 9.67918L9.59894 10.857L9.86751 11.5129C9.74498 11.5896 9.62818 11.6751 9.51806 11.7689C8.64724 12.5122 8.26762 13.6219 8.22119 14.5032L4 16.0907L4.19809 16.652L8.80653 14.9264L8.80439 14.7138C8.79715 13.9845 9.13564 12.8766 9.90137 12.2231C10.6171 11.6121 12.0961 11.2152 13.4102 12.0406C12.4392 9.68048 12.7781 10.549 12.4433 9.67925V9.67918ZM11.7987 12.1688C10.4756 12.1688 9.39668 13.2539 9.39668 14.5844C9.39668 15.915 10.4756 17 11.7987 17C13.1218 17 14.2007 15.915 14.2007 14.5844C14.2007 13.2539 13.1218 12.1688 11.7987 12.1688ZM11.7987 12.7645C12.8017 12.7645 13.6085 13.5758 13.6085 14.5844C13.6085 15.5931 12.8017 16.4044 11.7987 16.4044C10.7957 16.4044 9.98896 15.5931 9.98896 14.5844C9.98896 13.5758 10.7957 12.7645 11.7987 12.7645ZM11.8316 13.4594C11.2354 13.4594 10.7458 13.9518 10.7458 14.5513C10.7458 15.1509 11.2354 15.6433 11.8316 15.6433C12.4278 15.6433 12.9175 15.1509 12.9175 14.5513C12.9175 13.9518 12.4278 13.4594 11.8316 13.4594Z" fill="white"/>
</svg>
