<svg width="25" height="25" viewBox="0 0 25 25" fill="none" xmlns="http://www.w3.org/2000/svg">
<circle cx="12.5" cy="12.5" r="12.5" fill="#3676FF"/>
<g clip-path="url(#clip0_3_9)">
<path d="M5 18.5V13.9031C5 10.5156 7.13438 7.49375 10.3281 6.3625L15.6313 4.48438C16.3 4.24688 17 4.74375 17 5.45C17 5.79375 16.8281 6.1125 16.5437 6.30313L15.5 7C17.0031 7 18.35 7.93125 18.8781 9.34063L20.3969 13.3875C20.7656 14.3688 20.525 15.475 19.7844 16.2156C19.2844 16.7156 18.6031 17 17.8938 17H17.7875C16.9719 17 16.1969 16.6375 15.675 16.0094L14.6656 14.8C14.3 14.9281 13.9094 15 13.5 15H13.4969C13.3 15 13.1062 14.9844 12.9156 14.9531C12.8031 14.9344 12.6906 14.9094 12.5813 14.8813C11.6781 14.6375 10.9219 14.0438 10.4625 13.25C10.325 13.0125 10.0187 12.9281 9.77812 13.0688C9.5375 13.2094 9.45625 13.5125 9.59688 13.7531C10.3469 15.05 11.7312 15.9406 13.325 16L14.8 18.2125C14.925 18.4031 14.9937 18.625 14.9937 18.85C14.9937 19.4844 14.4781 20 13.8438 20H6.5C5.67188 20 5 19.3281 5 18.5ZM15.25 11C15.3485 11 15.446 10.9806 15.537 10.9429C15.628 10.9052 15.7107 10.85 15.7803 10.7803C15.85 10.7107 15.9052 10.628 15.9429 10.537C15.9806 10.446 16 10.3485 16 10.25C16 10.1515 15.9806 10.054 15.9429 9.96299C15.9052 9.87199 15.85 9.78931 15.7803 9.71967C15.7107 9.65003 15.628 9.59478 15.537 9.55709C15.446 9.5194 15.3485 9.5 15.25 9.5C15.1515 9.5 15.054 9.5194 14.963 9.55709C14.872 9.59478 14.7893 9.65003 14.7197 9.71967C14.65 9.78931 14.5948 9.87199 14.5571 9.96299C14.5194 10.054 14.5 10.1515 14.5 10.25C14.5 10.3485 14.5194 10.446 14.5571 10.537C14.5948 10.628 14.65 10.7107 14.7197 10.7803C14.7893 10.85 14.872 10.9052 14.963 10.9429C15.054 10.9806 15.1515 11 15.25 11Z" fill="white"/>
</g>
<defs>
<clipPath id="clip0_3_9">
<rect width="20" height="16" fill="white" transform="translate(3 4)"/>
</clipPath>
</defs>
</svg>
