<svg width="25" height="25" viewBox="0 0 25 25" fill="none" xmlns="http://www.w3.org/2000/svg">
<circle cx="12.5" cy="12.5" r="12.5" fill="#3676FF"/>
<g clip-path="url(#clip0_1_142)">
<path d="M20.4167 10.9167C19.8957 6.91294 17.9878 3.52777 12.5 3.52777C7.01216 3.52777 5.10424 6.91294 4.58333 10.9167C4.5031 11.5336 3.52777 11.9722 3.52777 14.0833C3.52777 15.1389 4.24872 15.9643 5.1111 16.1944C6.74985 16.632 6.69444 15.6667 12.5 15.6667C18.3055 15.6667 18.2501 16.632 19.8889 16.1944C20.7513 15.9643 21.4722 15.1389 21.4722 14.0833C21.4722 11.9722 20.4969 11.5336 20.4167 10.9167Z" fill="#BFBFBF"/>
<path d="M12.5 10.9526C7.01218 10.9526 4.05609 11.9722 4.05609 14.0833C4.05609 15.1389 4.24873 13.9904 5.11112 14.2211C6.74987 14.6586 6.69445 12.9982 12.5 12.9982C18.3056 12.9982 18.2501 14.6586 19.8889 14.2211C20.7513 13.9904 20.9439 15.1389 20.9439 14.0833C20.9439 11.9722 17.9878 10.9526 12.5 10.9526Z" fill="#E4E4E4"/>
<path d="M12.5 20.9265C7.60906 20.9265 5.12903 18.8017 5.12903 14.6111C5.12903 10.4205 7.60906 8.29572 12.5 8.29572C17.3914 8.29572 19.8709 10.4205 19.8709 14.6111C19.8709 18.8017 17.3914 20.9265 12.5 20.9265ZM12.5 9.31538C8.16692 9.31538 6.1487 10.9979 6.1487 14.6111C6.1487 18.2243 8.16692 19.9068 12.5 19.9068C16.833 19.9068 18.8513 18.2243 18.8513 14.6111C18.8513 10.9979 16.833 9.31538 12.5 9.31538Z" fill="#E4E4E4"/>
<path d="M15.6666 19.8889C15.6666 20.7634 14.249 21.4722 12.5 21.4722C10.7509 21.4722 9.33331 20.7634 9.33331 19.8889C9.33331 19.0144 10.7509 19.3611 12.5 19.3611C14.249 19.3611 15.6666 19.0144 15.6666 19.8889Z" fill="white"/>
<path d="M20.4167 10.9167C19.8957 6.91294 17.9878 3.52777 12.5 3.52777C7.01216 3.52777 5.10424 6.91294 4.58333 10.9167C4.5031 11.5336 3.52777 11.9722 3.52777 14.0833C3.52777 15.1389 4.24872 15.9643 5.1111 16.1944C5.1111 14.0833 5.1111 11.9722 12.5 11.9722C19.8889 11.9722 19.8889 14.0833 19.8889 16.1944C20.7513 15.9643 21.4722 15.1389 21.4722 14.0833C21.4722 11.9722 20.4969 11.5336 20.4167 10.9167Z" fill="white"/>
<path d="M12.5 9.86111C8.80555 9.86111 3.52777 10.3889 3.52777 14.0833C3.52777 15.1389 4.24872 15.9643 5.1111 16.1944C5.1111 14.0833 5.1111 11.9722 12.5 11.9722C19.8889 11.9722 19.8889 14.0833 19.8889 16.1944C20.7513 15.9643 21.4722 15.1389 21.4722 14.0833C21.4722 10.3889 15.6667 9.86111 12.5 9.86111Z" fill="white"/>
<path d="M12.5 11.4444C7.01216 11.4444 3.52777 11.9722 3.52777 14.0833C3.52777 15.1389 4.24872 15.9643 5.1111 16.1944C5.1111 14.0833 5.1111 11.9722 12.5 11.9722C19.8889 11.9722 19.8889 14.0833 19.8889 16.1944C20.7513 15.9643 21.4722 15.1389 21.4722 14.0833C21.4722 11.9722 17.9878 11.4444 12.5 11.4444Z" fill="white"/>
</g>
<defs>
<clipPath id="clip0_1_142">
<rect width="19" height="19" fill="white" transform="translate(3 3)"/>
</clipPath>
</defs>
</svg>
