<svg width="25" height="25" viewBox="0 0 25 25" fill="none" xmlns="http://www.w3.org/2000/svg">
<circle cx="12.5" cy="12.5" r="12.5" fill="#3676FF"/>
<path d="M13.6562 9.49023V19H11.1162V9.49023H13.6562ZM10.958 7.01172C10.958 6.64258 11.0869 6.33789 11.3447 6.09766C11.6025 5.85742 11.9482 5.7373 12.3818 5.7373C12.8096 5.7373 13.1523 5.85742 13.4102 6.09766C13.6738 6.33789 13.8057 6.64258 13.8057 7.01172C13.8057 7.38086 13.6738 7.68555 13.4102 7.92578C13.1523 8.16602 12.8096 8.28613 12.3818 8.28613C11.9482 8.28613 11.6025 8.16602 11.3447 7.92578C11.0869 7.68555 10.958 7.38086 10.958 7.01172Z" fill="white"/>
</svg>
